<?xml version="1.0" encoding="iso-8859-1"?>
<!-- Generator: Adobe Illustrator 19.0.0, SVG Export Plug-In . SVG Version: 6.00 Build 0)  -->
<svg version="1.1" id="Layer_1" xmlns="http://www.w3.org/2000/svg" xmlns:xlink="http://www.w3.org/1999/xlink" x="0px" y="0px"
	 viewBox="0 0 376.386 376.386" style="enable-background:new 0 0 376.386 376.386;" xml:space="preserve">
<g>
	<g>
		<path d="M193.656,59.992H98.819c-5.818,0-10.408,4.719-10.408,10.408c0,5.754,4.59,10.408,10.408,10.408h94.836
			c5.818,0,10.408-4.719,10.408-10.408C204.064,64.582,199.345,59.992,193.656,59.992z"/>
	</g>
</g>
<g>
	<g>
		<path d="M231.603,122.505H98.819c-5.818,0-10.408,4.719-10.408,10.408c0,5.753,4.59,10.408,10.408,10.408h132.784
			c5.818,0,10.408-4.719,10.408-10.408C242.011,127.095,237.292,122.505,231.603,122.505z"/>
	</g>
</g>
<g>
	<g>
		<path d="M161.979,184.954h-63.16c-5.818,0-10.408,4.719-10.408,10.408c0,5.818,4.719,10.408,10.408,10.408h63.16
			c5.818,0,10.408-4.719,10.408-10.408C172.387,189.608,167.733,184.954,161.979,184.954z"/>
	</g>
</g>
<g>
	<g>
		<path d="M314.609,195.685V27.539C314.609,12.412,302.262,0,287.07,0H76.387C61.26,0,48.848,12.347,48.848,27.539v230.4
			c0,7.24,2.909,14.287,8.016,19.394l42.796,42.731c5.107,5.107,12.218,8.016,19.394,8.016h95.871v37.818
			c0,4.073,2.392,7.887,6.206,9.568c3.685,1.681,8.21,1.034,11.184-1.745l20.493-18.36l20.493,18.36
			c3.556,2.715,8.339,2.715,11.184,1.745c3.943-1.228,6.206-5.43,6.206-9.568v-64.194c22.109-13.059,36.848-36.849,36.848-64.129
			C327.539,222.061,322.755,207.644,314.609,195.685z M101.599,292.525l-17.002-17.002h17.002V292.525z M215.054,307.329h-92.509
			v-0.065v-42.279c0-5.818-4.719-10.408-10.408-10.408H69.858V27.539c0-3.62,2.909-6.659,6.659-6.659h210.618
			c3.62,0,6.659,2.909,6.659,6.659v147.588c-11.766-7.758-25.729-12.218-40.792-12.218c-41.18,0-74.667,33.487-74.667,74.667
			c0,27.281,14.739,51.135,36.719,64.129V307.329z M270.068,342.432h-0.065l-10.02-9.051c-3.943-3.556-9.956-3.556-13.964,0
			l-10.02,9.051v-32.323c5.495,1.293,11.184,2.004,17.002,2.004c5.883,0,11.572-0.776,17.067-2.004V342.432z M252.872,291.297
			c-29.608,0-53.721-24.113-53.721-53.721s24.113-53.721,53.721-53.721s53.721,24.113,53.721,53.721
			S282.545,291.297,252.872,291.297z"/>
	</g>
</g>
<g>
</g>
<g>
</g>
<g>
</g>
<g>
</g>
<g>
</g>
<g>
</g>
<g>
</g>
<g>
</g>
<g>
</g>
<g>
</g>
<g>
</g>
<g>
</g>
<g>
</g>
<g>
</g>
<g>
</g>
</svg>
